<mxfile host="app.diagrams.net" agent="Mozilla/5.0 (X11; Linux x86_64) AppleWebKit/537.36 (KHTML, like Gecko) Chrome/131.0.0.0 Safari/537.36" version="26.0.4">
  <diagram name="PaginÄƒ-1" id="pLVLAWlQS_ThMUBqPn5n">
    <mxGraphModel dx="1834" dy="-814" grid="0" gridSize="10" guides="1" tooltips="1" connect="1" arrows="1" fold="1" page="0" pageScale="1" pageWidth="827" pageHeight="1169" background="#171717" math="0" shadow="0">
      <root>
        <mxCell id="0" />
        <mxCell id="1" parent="0" />
        <mxCell id="vBLCNvJbEhc0xONjJk8u-10" value="" style="endArrow=none;html=1;fillColor=#f5f5f5;gradientColor=#b3b3b3;strokeColor=#666666;" edge="1" parent="1">
          <mxGeometry width="50" height="50" relative="1" as="geometry">
            <mxPoint x="189.5" y="2078" as="sourcePoint" />
            <mxPoint x="189" y="1743" as="targetPoint" />
          </mxGeometry>
        </mxCell>
        <mxCell id="vBLCNvJbEhc0xONjJk8u-18" value="" style="endArrow=none;html=1;fillColor=#f5f5f5;gradientColor=#b3b3b3;strokeColor=#666666;" edge="1" parent="1">
          <mxGeometry width="50" height="50" relative="1" as="geometry">
            <mxPoint x="455.5" y="2078" as="sourcePoint" />
            <mxPoint x="455" y="1743" as="targetPoint" />
          </mxGeometry>
        </mxCell>
        <mxCell id="vBLCNvJbEhc0xONjJk8u-19" value="Bridge&amp;nbsp;&lt;div&gt;smart-contract&lt;/div&gt;" style="rounded=1;whiteSpace=wrap;html=1;fillColor=#fff2cc;strokeColor=#d6b656;gradientColor=#ffd966;" vertex="1" parent="1">
          <mxGeometry x="492" y="1909" width="87" height="57" as="geometry" />
        </mxCell>
        <mxCell id="vBLCNvJbEhc0xONjJk8u-20" value="Safe smart-contract" style="rounded=1;whiteSpace=wrap;html=1;fillColor=#fff2cc;strokeColor=#d6b656;gradientColor=#ffd966;" vertex="1" parent="1">
          <mxGeometry x="623" y="1909" width="115" height="57" as="geometry" />
        </mxCell>
        <mxCell id="vBLCNvJbEhc0xONjJk8u-21" value="" style="endArrow=classic;html=1;exitX=1;exitY=0.5;exitDx=0;exitDy=0;entryX=0;entryY=0.5;entryDx=0;entryDy=0;fillColor=#fff2cc;gradientColor=#ffd966;strokeColor=#d6b656;" edge="1" parent="1" source="vBLCNvJbEhc0xONjJk8u-19" target="vBLCNvJbEhc0xONjJk8u-20">
          <mxGeometry width="50" height="50" relative="1" as="geometry">
            <mxPoint x="563" y="1903" as="sourcePoint" />
            <mxPoint x="613" y="1853" as="targetPoint" />
          </mxGeometry>
        </mxCell>
        <mxCell id="vBLCNvJbEhc0xONjJk8u-22" value="User / script / service / dApp interactions" style="rounded=1;whiteSpace=wrap;html=1;fillColor=#e6d0de;strokeColor=#996185;gradientColor=#d5739d;" vertex="1" parent="1">
          <mxGeometry x="738" y="1800" width="181" height="41" as="geometry" />
        </mxCell>
        <mxCell id="vBLCNvJbEhc0xONjJk8u-23" value="" style="curved=1;endArrow=classic;html=1;entryX=0.25;entryY=0;entryDx=0;entryDy=0;exitX=0;exitY=0.5;exitDx=0;exitDy=0;strokeColor=#996185;fillColor=#e6d0de;gradientColor=#d5739d;" edge="1" parent="1" source="vBLCNvJbEhc0xONjJk8u-22" target="vBLCNvJbEhc0xONjJk8u-20">
          <mxGeometry width="50" height="50" relative="1" as="geometry">
            <mxPoint x="714" y="1818" as="sourcePoint" />
            <mxPoint x="608" y="1884" as="targetPoint" />
            <Array as="points">
              <mxPoint x="630" y="1869" />
            </Array>
          </mxGeometry>
        </mxCell>
        <mxCell id="vBLCNvJbEhc0xONjJk8u-24" value="EVM-compatible chain" style="rounded=1;whiteSpace=wrap;html=1;fillColor=#171717;fontColor=#FFFFFF;align=left;strokeColor=none;" vertex="1" parent="1">
          <mxGeometry x="460" y="1743" width="132" height="21" as="geometry" />
        </mxCell>
        <mxCell id="vBLCNvJbEhc0xONjJk8u-25" value="MultiversX" style="rounded=1;whiteSpace=wrap;html=1;fillColor=#171717;fontColor=#FFFFFF;align=right;strokeColor=none;" vertex="1" parent="1">
          <mxGeometry x="112" y="1743" width="72" height="21" as="geometry" />
        </mxCell>
        <mxCell id="vBLCNvJbEhc0xONjJk8u-26" value="" style="curved=1;endArrow=classic;html=1;entryX=0.116;entryY=1.012;entryDx=0;entryDy=0;exitX=1;exitY=0.25;exitDx=0;exitDy=0;strokeColor=#996185;fillColor=#e6d0de;gradientColor=#d5739d;entryPerimeter=0;" edge="1" parent="1" source="vBLCNvJbEhc0xONjJk8u-20" target="vBLCNvJbEhc0xONjJk8u-22">
          <mxGeometry width="50" height="50" relative="1" as="geometry">
            <mxPoint x="916" y="1913" as="sourcePoint" />
            <mxPoint x="804" y="1988" as="targetPoint" />
            <Array as="points">
              <mxPoint x="782" y="1948" />
            </Array>
          </mxGeometry>
        </mxCell>
        <mxCell id="vBLCNvJbEhc0xONjJk8u-27" value="Relayers" style="rounded=1;whiteSpace=wrap;html=1;fillColor=#171717;fontColor=#FFFFFF;align=center;strokeColor=none;" vertex="1" parent="1">
          <mxGeometry x="264.5" y="1743" width="132" height="21" as="geometry" />
        </mxCell>
        <mxCell id="vBLCNvJbEhc0xONjJk8u-29" value="" style="ellipse;whiteSpace=wrap;html=1;" vertex="1" parent="1">
          <mxGeometry x="231.5" y="1825" width="19" height="19" as="geometry" />
        </mxCell>
        <mxCell id="vBLCNvJbEhc0xONjJk8u-30" value="" style="ellipse;whiteSpace=wrap;html=1;" vertex="1" parent="1">
          <mxGeometry x="314.5" y="1784" width="19" height="19" as="geometry" />
        </mxCell>
        <mxCell id="vBLCNvJbEhc0xONjJk8u-31" value="" style="ellipse;whiteSpace=wrap;html=1;" vertex="1" parent="1">
          <mxGeometry x="403.5" y="1806" width="19" height="19" as="geometry" />
        </mxCell>
        <mxCell id="vBLCNvJbEhc0xONjJk8u-32" value="" style="ellipse;whiteSpace=wrap;html=1;" vertex="1" parent="1">
          <mxGeometry x="229.5" y="1923" width="19" height="19" as="geometry" />
        </mxCell>
        <mxCell id="vBLCNvJbEhc0xONjJk8u-33" value="" style="ellipse;whiteSpace=wrap;html=1;" vertex="1" parent="1">
          <mxGeometry x="270.5" y="1993" width="19" height="19" as="geometry" />
        </mxCell>
        <mxCell id="vBLCNvJbEhc0xONjJk8u-34" value="" style="ellipse;whiteSpace=wrap;html=1;" vertex="1" parent="1">
          <mxGeometry x="341.5" y="2018" width="19" height="19" as="geometry" />
        </mxCell>
        <mxCell id="vBLCNvJbEhc0xONjJk8u-35" value="" style="ellipse;whiteSpace=wrap;html=1;" vertex="1" parent="1">
          <mxGeometry x="287.5" y="1872" width="19" height="19" as="geometry" />
        </mxCell>
        <mxCell id="vBLCNvJbEhc0xONjJk8u-36" value="" style="ellipse;whiteSpace=wrap;html=1;" vertex="1" parent="1">
          <mxGeometry x="322.5" y="1938" width="19" height="19" as="geometry" />
        </mxCell>
        <mxCell id="vBLCNvJbEhc0xONjJk8u-37" value="" style="ellipse;whiteSpace=wrap;html=1;" vertex="1" parent="1">
          <mxGeometry x="360.5" y="1864" width="19" height="19" as="geometry" />
        </mxCell>
        <mxCell id="vBLCNvJbEhc0xONjJk8u-38" value="" style="ellipse;whiteSpace=wrap;html=1;" vertex="1" parent="1">
          <mxGeometry x="396.5" y="1929" width="19" height="19" as="geometry" />
        </mxCell>
        <mxCell id="vBLCNvJbEhc0xONjJk8u-39" value="" style="endArrow=none;html=1;strokeColor=#FFFFFF;" edge="1" parent="1" source="vBLCNvJbEhc0xONjJk8u-31" target="vBLCNvJbEhc0xONjJk8u-30">
          <mxGeometry width="50" height="50" relative="1" as="geometry">
            <mxPoint x="314.5" y="1942" as="sourcePoint" />
            <mxPoint x="364.5" y="1892" as="targetPoint" />
          </mxGeometry>
        </mxCell>
        <mxCell id="vBLCNvJbEhc0xONjJk8u-40" value="" style="endArrow=none;html=1;strokeColor=#ffffff;" edge="1" parent="1" source="vBLCNvJbEhc0xONjJk8u-29" target="vBLCNvJbEhc0xONjJk8u-30">
          <mxGeometry width="50" height="50" relative="1" as="geometry">
            <mxPoint x="320.5" y="1983" as="sourcePoint" />
            <mxPoint x="370.5" y="1933" as="targetPoint" />
          </mxGeometry>
        </mxCell>
        <mxCell id="vBLCNvJbEhc0xONjJk8u-41" value="" style="endArrow=none;html=1;strokeColor=#ffffff;" edge="1" parent="1" source="vBLCNvJbEhc0xONjJk8u-32" target="vBLCNvJbEhc0xONjJk8u-29">
          <mxGeometry width="50" height="50" relative="1" as="geometry">
            <mxPoint x="320.5" y="1983" as="sourcePoint" />
            <mxPoint x="370.5" y="1933" as="targetPoint" />
          </mxGeometry>
        </mxCell>
        <mxCell id="vBLCNvJbEhc0xONjJk8u-42" value="" style="endArrow=none;html=1;strokeColor=#ffffff;" edge="1" parent="1" source="vBLCNvJbEhc0xONjJk8u-33" target="vBLCNvJbEhc0xONjJk8u-32">
          <mxGeometry width="50" height="50" relative="1" as="geometry">
            <mxPoint x="320.5" y="1983" as="sourcePoint" />
            <mxPoint x="370.5" y="1933" as="targetPoint" />
          </mxGeometry>
        </mxCell>
        <mxCell id="vBLCNvJbEhc0xONjJk8u-43" value="" style="endArrow=none;html=1;strokeColor=#ffffff;" edge="1" parent="1" source="vBLCNvJbEhc0xONjJk8u-32" target="vBLCNvJbEhc0xONjJk8u-37">
          <mxGeometry width="50" height="50" relative="1" as="geometry">
            <mxPoint x="320.5" y="1983" as="sourcePoint" />
            <mxPoint x="370.5" y="1933" as="targetPoint" />
          </mxGeometry>
        </mxCell>
        <mxCell id="vBLCNvJbEhc0xONjJk8u-44" value="" style="endArrow=none;html=1;strokeColor=#ffffff;" edge="1" parent="1" source="vBLCNvJbEhc0xONjJk8u-32" target="vBLCNvJbEhc0xONjJk8u-35">
          <mxGeometry width="50" height="50" relative="1" as="geometry">
            <mxPoint x="320.5" y="1983" as="sourcePoint" />
            <mxPoint x="370.5" y="1933" as="targetPoint" />
          </mxGeometry>
        </mxCell>
        <mxCell id="vBLCNvJbEhc0xONjJk8u-45" value="" style="endArrow=none;html=1;strokeColor=#ffffff;" edge="1" parent="1" source="vBLCNvJbEhc0xONjJk8u-31" target="vBLCNvJbEhc0xONjJk8u-35">
          <mxGeometry width="50" height="50" relative="1" as="geometry">
            <mxPoint x="320.5" y="1983" as="sourcePoint" />
            <mxPoint x="370.5" y="1933" as="targetPoint" />
          </mxGeometry>
        </mxCell>
        <mxCell id="vBLCNvJbEhc0xONjJk8u-46" value="" style="endArrow=none;html=1;strokeColor=#ffffff;" edge="1" parent="1" source="vBLCNvJbEhc0xONjJk8u-38" target="vBLCNvJbEhc0xONjJk8u-37">
          <mxGeometry width="50" height="50" relative="1" as="geometry">
            <mxPoint x="320.5" y="1983" as="sourcePoint" />
            <mxPoint x="370.5" y="1933" as="targetPoint" />
          </mxGeometry>
        </mxCell>
        <mxCell id="vBLCNvJbEhc0xONjJk8u-47" value="" style="endArrow=none;html=1;strokeColor=#ffffff;" edge="1" parent="1" source="vBLCNvJbEhc0xONjJk8u-33" target="vBLCNvJbEhc0xONjJk8u-34">
          <mxGeometry width="50" height="50" relative="1" as="geometry">
            <mxPoint x="320.5" y="1983" as="sourcePoint" />
            <mxPoint x="370.5" y="1933" as="targetPoint" />
          </mxGeometry>
        </mxCell>
        <mxCell id="vBLCNvJbEhc0xONjJk8u-48" value="" style="endArrow=none;html=1;strokeColor=#ffffff;" edge="1" parent="1" source="vBLCNvJbEhc0xONjJk8u-34" target="vBLCNvJbEhc0xONjJk8u-38">
          <mxGeometry width="50" height="50" relative="1" as="geometry">
            <mxPoint x="320.5" y="1983" as="sourcePoint" />
            <mxPoint x="370.5" y="1933" as="targetPoint" />
          </mxGeometry>
        </mxCell>
        <mxCell id="vBLCNvJbEhc0xONjJk8u-49" value="" style="endArrow=none;html=1;strokeColor=#ffffff;" edge="1" parent="1" source="vBLCNvJbEhc0xONjJk8u-38" target="vBLCNvJbEhc0xONjJk8u-31">
          <mxGeometry width="50" height="50" relative="1" as="geometry">
            <mxPoint x="320.5" y="1983" as="sourcePoint" />
            <mxPoint x="370.5" y="1933" as="targetPoint" />
          </mxGeometry>
        </mxCell>
        <mxCell id="vBLCNvJbEhc0xONjJk8u-50" value="" style="endArrow=none;html=1;strokeColor=#ffffff;" edge="1" parent="1" source="vBLCNvJbEhc0xONjJk8u-36" target="vBLCNvJbEhc0xONjJk8u-37">
          <mxGeometry width="50" height="50" relative="1" as="geometry">
            <mxPoint x="320.5" y="1983" as="sourcePoint" />
            <mxPoint x="370.5" y="1933" as="targetPoint" />
          </mxGeometry>
        </mxCell>
        <mxCell id="vBLCNvJbEhc0xONjJk8u-51" value="" style="endArrow=none;html=1;strokeColor=#ffffff;" edge="1" parent="1" source="vBLCNvJbEhc0xONjJk8u-33" target="vBLCNvJbEhc0xONjJk8u-36">
          <mxGeometry width="50" height="50" relative="1" as="geometry">
            <mxPoint x="320.5" y="1983" as="sourcePoint" />
            <mxPoint x="370.5" y="1933" as="targetPoint" />
          </mxGeometry>
        </mxCell>
        <mxCell id="vBLCNvJbEhc0xONjJk8u-52" value="" style="endArrow=none;html=1;strokeColor=#ffffff;" edge="1" parent="1" source="vBLCNvJbEhc0xONjJk8u-36" target="vBLCNvJbEhc0xONjJk8u-38">
          <mxGeometry width="50" height="50" relative="1" as="geometry">
            <mxPoint x="320.5" y="1983" as="sourcePoint" />
            <mxPoint x="370.5" y="1933" as="targetPoint" />
          </mxGeometry>
        </mxCell>
        <mxCell id="vBLCNvJbEhc0xONjJk8u-53" value="" style="endArrow=none;html=1;strokeColor=#ffffff;" edge="1" parent="1" source="vBLCNvJbEhc0xONjJk8u-35" target="vBLCNvJbEhc0xONjJk8u-30">
          <mxGeometry width="50" height="50" relative="1" as="geometry">
            <mxPoint x="320.5" y="1983" as="sourcePoint" />
            <mxPoint x="370.5" y="1933" as="targetPoint" />
          </mxGeometry>
        </mxCell>
        <mxCell id="vBLCNvJbEhc0xONjJk8u-54" value="" style="endArrow=none;html=1;strokeColor=#ffffff;" edge="1" parent="1" source="vBLCNvJbEhc0xONjJk8u-37" target="vBLCNvJbEhc0xONjJk8u-31">
          <mxGeometry width="50" height="50" relative="1" as="geometry">
            <mxPoint x="320.5" y="1983" as="sourcePoint" />
            <mxPoint x="370.5" y="1933" as="targetPoint" />
          </mxGeometry>
        </mxCell>
        <mxCell id="vBLCNvJbEhc0xONjJk8u-65" value="" style="shape=flexArrow;endArrow=classic;html=1;rounded=0;startArrow=block;fillColor=#e6d0de;gradientColor=#d5739d;strokeColor=#996185;width=15.000000000000002;endSize=7.242857142857144;" edge="1" parent="1">
          <mxGeometry width="50" height="50" relative="1" as="geometry">
            <mxPoint x="420" y="1937" as="sourcePoint" />
            <mxPoint x="492" y="1937.14" as="targetPoint" />
          </mxGeometry>
        </mxCell>
        <mxCell id="vBLCNvJbEhc0xONjJk8u-66" value="interaction" style="edgeLabel;html=1;align=center;verticalAlign=middle;resizable=0;points=[];labelBackgroundColor=none;" vertex="1" connectable="0" parent="vBLCNvJbEhc0xONjJk8u-65">
          <mxGeometry x="-0.0595" y="-1" relative="1" as="geometry">
            <mxPoint x="1" y="-1" as="offset" />
          </mxGeometry>
        </mxCell>
        <mxCell id="vBLCNvJbEhc0xONjJk8u-67" value="Bridge&amp;nbsp;&lt;div&gt;smart-contract&lt;/div&gt;" style="rounded=1;whiteSpace=wrap;html=1;fillColor=#fff2cc;strokeColor=#d6b656;gradientColor=#ffd966;" vertex="1" parent="1">
          <mxGeometry x="67" y="1909" width="87" height="57" as="geometry" />
        </mxCell>
        <mxCell id="vBLCNvJbEhc0xONjJk8u-68" value="Safe smart-contract&lt;div&gt;Multi-transfer smart-contract&lt;/div&gt;&lt;div&gt;Wrapper smart-contract&lt;/div&gt;&lt;div&gt;Bridge-proxy smart-contract&lt;/div&gt;" style="rounded=1;whiteSpace=wrap;html=1;fillColor=#fff2cc;strokeColor=#d6b656;gradientColor=#ffd966;" vertex="1" parent="1">
          <mxGeometry x="-140" y="1898" width="155" height="80" as="geometry" />
        </mxCell>
        <mxCell id="vBLCNvJbEhc0xONjJk8u-70" value="" style="shape=flexArrow;endArrow=classic;html=1;rounded=0;startArrow=block;fillColor=#d5e8d4;gradientColor=#97d077;strokeColor=#82b366;width=15.000000000000002;endSize=7.242857142857144;" edge="1" parent="1">
          <mxGeometry width="50" height="50" relative="1" as="geometry">
            <mxPoint x="155" y="1935.14" as="sourcePoint" />
            <mxPoint x="227" y="1935" as="targetPoint" />
          </mxGeometry>
        </mxCell>
        <mxCell id="vBLCNvJbEhc0xONjJk8u-71" value="interaction" style="edgeLabel;html=1;align=center;verticalAlign=middle;resizable=0;points=[];labelBackgroundColor=none;" vertex="1" connectable="0" parent="vBLCNvJbEhc0xONjJk8u-70">
          <mxGeometry x="-0.0595" y="-1" relative="1" as="geometry">
            <mxPoint x="1" y="-1" as="offset" />
          </mxGeometry>
        </mxCell>
        <mxCell id="vBLCNvJbEhc0xONjJk8u-72" value="" style="endArrow=classic;html=1;exitX=0;exitY=0.5;exitDx=0;exitDy=0;entryX=1;entryY=0.5;entryDx=0;entryDy=0;fillColor=#fff2cc;gradientColor=#ffd966;strokeColor=#d6b656;" edge="1" parent="1" source="vBLCNvJbEhc0xONjJk8u-67" target="vBLCNvJbEhc0xONjJk8u-68">
          <mxGeometry width="50" height="50" relative="1" as="geometry">
            <mxPoint x="589" y="1948" as="sourcePoint" />
            <mxPoint x="633" y="1948" as="targetPoint" />
          </mxGeometry>
        </mxCell>
        <mxCell id="vBLCNvJbEhc0xONjJk8u-73" value="User / script / service / dApp interactions" style="rounded=1;whiteSpace=wrap;html=1;fillColor=#d5e8d4;strokeColor=#82b366;gradientColor=#97d077;" vertex="1" parent="1">
          <mxGeometry x="-321" y="1800" width="181" height="41" as="geometry" />
        </mxCell>
        <mxCell id="vBLCNvJbEhc0xONjJk8u-74" value="" style="curved=1;endArrow=classic;html=1;entryX=0.5;entryY=0;entryDx=0;entryDy=0;exitX=1;exitY=0.5;exitDx=0;exitDy=0;strokeColor=#82b366;fillColor=#d5e8d4;gradientColor=#97d077;" edge="1" parent="1" source="vBLCNvJbEhc0xONjJk8u-73" target="vBLCNvJbEhc0xONjJk8u-68">
          <mxGeometry width="50" height="50" relative="1" as="geometry">
            <mxPoint x="-376" y="1808" as="sourcePoint" />
            <mxPoint x="-438" y="1899" as="targetPoint" />
            <Array as="points">
              <mxPoint x="-50" y="1820" />
            </Array>
          </mxGeometry>
        </mxCell>
        <mxCell id="vBLCNvJbEhc0xONjJk8u-75" value="" style="curved=1;endArrow=classic;html=1;entryX=0;entryY=0.5;entryDx=0;entryDy=0;exitX=0.25;exitY=1;exitDx=0;exitDy=0;strokeColor=#82b366;fillColor=#d5e8d4;gradientColor=#97d077;" edge="1" parent="1" target="vBLCNvJbEhc0xONjJk8u-68" source="vBLCNvJbEhc0xONjJk8u-73">
          <mxGeometry width="50" height="50" relative="1" as="geometry">
            <mxPoint x="-352" y="1913" as="sourcePoint" />
            <mxPoint x="-286" y="1978" as="targetPoint" />
            <Array as="points">
              <mxPoint x="-270" y="1930" />
            </Array>
          </mxGeometry>
        </mxCell>
      </root>
    </mxGraphModel>
  </diagram>
</mxfile>
